<svg version="1" xmlns="http://www.w3.org/2000/svg" width="933.333" height="933.333" viewBox="0 0 700.000000 700.000000"><path d="M273.8 137.7c.7.3 1.6.2 1.9-.1.4-.3-.2-.6-1.3-.5-1.1 0-1.4.3-.6.6zM254.6 141.8c-.2.4 1.2.6 3.2.4 5.6-.5 6.2-1 1.5-1.1-2.3-.1-4.4.3-4.7.7zM265.8 142.7c.7.3 1.6.2 1.9-.1.4-.3-.2-.6-1.3-.5-1.1 0-1.4.3-.6.6zM269 143.4c0 .2.9.6 2 .9 1.1.3 1.8.1 1.4-.4-.5-.9-3.4-1.3-3.4-.5zM274.7 145.1c.7.7 1.5 1 1.8.7.3-.3-.2-.9-1.2-1.2-1.4-.6-1.5-.5-.6.5zM287 144.4c0 .2.8 1 1.8 1.7 1.5 1.3 1.6 1.2.3-.4s-2.1-2.1-2.1-1.3zM278.7 147.1c.7.7 1.5 1 1.8.7.3-.3-.2-.9-1.2-1.2-1.4-.6-1.5-.5-.6.5zM181.3 148.7c-2.2.8-1.5 3.4 2.8 10.4 2.2 3.7 4.2 7.4 4.3 8.1.2.7.8 2.6 1.4 4.1.7 1.6 1.2 3.2 1.2 3.6 0 1 10.5 11.2 14 13.8 4.7 3.3 7 4.3 14.8 6.2 14.4 3.4 28.1-.7 31.9-9.6 1.7-4.2.9-9-2-11.7-2-1.9-2-1.9-1.4 1.5.9 4.9-2.8 8.8-9.8 10.4-4 1-5.5 1-5.9.1-.3-.8-.5-.7-.5.1-.1.7-.8 1-1.6.7-.8-.4-1.2-1-.9-1.5.3-.5-.2-.6-1.1-.3-.8.4-2.1.2-2.8-.4-1.1-.9-5-2.1-9.2-2.9-1.1-.2-4.5-3-7.5-6.2s-7.1-6.4-9-7.1c-1.9-.7-4.3-2-5.3-2.8-.9-.8-2.7-2-3.8-2.6-1.2-.6-3.2-3.1-4.5-5.6-2.2-4.1-2.3-4.6-.8-5.7 2.9-2.1-.5-4.2-4.3-2.6z"/><path d="M210.6 151.3c.3.9 1 1.7 1.5 1.7s.9.7.9 1.6c0 .8.4 1.3.9 1 .5-.4.7.4.3 1.6-.3 1.4-.2 1.9.6 1.4.7-.4 1.2-1.4 1.2-2.2 0-1.1.5-1 2.2.5 1.1 1.1 2.5 1.8 2.9 1.5.5-.3.6.1.3.9s-.1 1.8.5 2.2c.7.3 1.1-.2 1.1-1.4 0-2.7 1.8-2.7 4.6 0 2.1 2 2.4 2 3.9.6.8-.9 2.4-1.4 3.5-1.2 1.1.2 2 0 2-.6 0-.5-.6-.9-1.2-1-.7-.1-.2-.5 1.2-1 2-.7 1.8-.8-1-.3-1.9.4-4.6.6-6 .5-2-.1-2.2.1-1 1 1.2.9 1.2 1 .1.7-2.5-.7-2.2-2.3.6-4l2.8-1.7-2.6-.1c-1.5 0-3.2.7-3.9 1.5-.7.8-1.8 1.5-2.4 1.5-.6 0-.5-.4.3-.9.9-.6.5-.9-1.4-.9-1.6 0-2.2.4-1.5.8.8.5.9 1 .2 1.4-1.2.7-3.5-2.8-2.5-3.8.3-.3 1.4-.6 2.4-.6s2-.4 2.3-.9c.4-.5-1.7-.3-4.6.5-4.7 1.2-5.4 1.2-7.1-.3-1.7-1.6-1.7-1.6-1.1 0zM140.6 155.5c-1.6.9-3.7 2.6-4.5 3.8-2 2.8-6.1 6.7-7 6.5-1.5-.3-6 1.5-5.6 2.2.3.5 0 1-.7 1.2-1.5.5-2.1 3.2-2.2 9.8-.1 4.5.4 6.2 2.4 8.7 5.1 6.3 12.4 8.3 20.8 5.8 4.6-1.4 13.2-8.8 13.2-11.4 0-.6.4-1.1.9-1.1 1.7 0 3.3-7.1 2.9-12.1-.6-5.7-4.7-12.5-8.4-13.9-3.7-1.4-8.5-1.2-11.8.5zM290 155.4c0 .2.8 1 1.8 1.7 1.5 1.3 1.6 1.2.3-.4s-2.1-2.1-2.1-1.3z"/><path d="M237.5 159.8c-.3.7-.9 1.1-1.4.7-1.7-1-2.1 1.1-.6 3.1 1.3 1.7 1.4 1.8 1.5.1 0-2.1 2.8-2.2 5.7-.2 1.4 1 2.4 1.1 2.8.5.3-.5-.5-1.5-1.9-2.1-1.4-.7-2.3-1.6-2-2.1.3-.4 1.1-.5 1.7-.2.7.4.9.3.4-.1-1.2-1.4-5.6-1.2-6.2.3zM676.1 170.5c-10.3 3.7-11.9 4.5-26.1 11.5-16 7.9-31.5 16.4-38.5 21-2.2 1.5-6.9 4.6-10.5 6.8-8.9 5.7-11.7 8.4-18.8 18.2-3.4 4.7-7.1 9.6-8.1 11-1.1 1.4-7.4 9.8-13.9 18.6-10.3 13.8-12.8 16.6-17.8 19.6-6.9 4.2-18 9.4-28 13.3-5.9 2.3-7.3 3.3-8.2 5.9-.7 1.7-2.7 4.1-4.5 5.3-1.8 1.3-6.1 4.9-9.6 8.2-4.6 4.3-7.7 6.3-11.8 7.6-6.1 1.9-7.3 1.4-7.3-3.5 0-5.7-6.7-11.5-15.5-13.5-12.8-2.9-36.5-2.3-59.5 1.5-3 .5-7.1 1.2-9 1.5-1.9.3-6.9 1.2-11 2-4.1.9-8.4 1.7-9.5 1.9-11.8 2.3-51.6 12.9-63 16.8-3.3 1.1-6.7 2.1-7.6 2.3-3.7.7-36.5 11.8-37.6 12.7-.7.6-1.3.8-1.3.5 0-.5-3.5.7-9.5 3.2-1.1.5-8.1 3.2-15.5 5.9-7.4 2.8-15.7 6-18.5 7.3-2.7 1.2-5.4 2.3-6 2.5-4 1-31.3 13.3-52.2 23.4-10.1 5-18.7 9-19.1 9-.4 0 .9-1.4 2.8-3l3.5-2.9-3.2-.1c-2.6 0-3.3-.5-4.2-3.1-.8-2.3-.8-2.9.2-2.6.6.2 1.1 1 .9 1.6-.1.6 1.4.1 3.3-1.1 4.1-2.7 4.5-3.8 1-3.2-1.9.3-2.5 0-2.5-1.4 0-1 .4-2.2.9-2.8 1.4-1.5 2.3-6.4 1.1-6.4-.5 0-2.2 1.9-3.6 4.2-2.6 4-2.7 4.1-3.8 1.9-.7-1.2-1.5-1.9-1.8-1.6-.7.7.3 5.6 1.1 5.1.3-.2.6.9.7 2.4.1 1.6-.5 3.1-1.2 3.4-.8.3-1.3.2-1.2-.2.3-1.3-1.3-5.2-2.2-5.2-.9 0-.3 2.2 2.4 9.5 1.9 5.3.4 6.9-3 3.1-1.8-1.9-3-2.4-3.7-1.7-.7.7-.1 2.2 1.8 4.7 2.6 3.4 2.7 3.8 1.1 4.9-.9.7-2.6 1-3.8.7-1.3-.3-1.9-.1-1.5.5.8 1.3-5.7 5.8-13.3 9.3-1.4.6-3.3 1.9-4.3 2.8-2.4 2.2-3.3.7-4.2-6.8-.7-5.9.9-14.5 2.5-13.5.4.3.6-.5.2-1.7-.4-1.6-.2-1.9.8-1.3.9.5 1.1.4.6-.4-.4-.7-.2-3.5.5-6.4.8-2.9 1.4-5.7 1.4-6.2 0-.6 3.1-4.1 6.8-7.9 5.9-6 8.9-9.7 9.2-11.6.9-4.1 3.3-9.8 4.7-10.8 1-.7 1.8-2.4 1.8-3.7 0-2.6 6.1-8.5 12.3-11.6 3.9-2 5.7-1.8 5.7.7 0 2.2 3 1.6 3.9-.9 1.1-3-.7-6.6-3.6-7.3-2.4-.6-2.9-.4-17.7 10.1-2.6 1.9-5.9 3.5-7.2 3.5-1.4 0-2.7.6-3 1.4-.3.8-1.8 1.6-3.4 2-3.6.7-9.5 5.9-15.9 14-11 13.9-14.5 23.9-14.4 41.1 0 9.1.5 12.3 2.6 18.5 1.4 4.1 2.5 7.5 2.4 7.5-.8.3-10.4 6.8-15.6 10.7-6.3 4.7-6.4 4.8-7.9 2.7-1.1-1.6-1.2-2.9-.4-6 2.1-8.1-2.3-17-10.2-20.9-3.9-1.9-5-2-8.8-1-10.9 3-20.7 18.6-18.7 29.7 1.2 6.3 5 11 9.5 11.9 3.3.6 10.3-.8 12.9-2.7.6-.4 2.1-.3 3.4.2l2.4.9-2 2.3c-1.1 1.2-3.2 3.5-4.7 5.2-3.5 4-6.9 11-7.1 15-.7 10.3 13.8 35.7 29 50.9 18.4 18.4 50.4 34.9 80 41.1 18.5 4 35.5 5.8 54.5 5.7 10 0 28.1-.9 32-1.7 1-.2 4-.6 6.7-1 2.6-.4 5.9-.9 7.3-1.1 1.4-.2 4.1-.7 6-1 1.9-.3 4.3-.7 5.2-1 1-.3 3-.7 4.5-1 5.8-1 23.2-5.7 32.8-8.8 72.5-24 133.1-72 161-127.7 8.1-16 12.7-30.4 16-49.9 2.3-13.9 6.6-26.5 11.2-32.6 2.5-3.4 8-6.5 15.5-8.7 3.8-1.1 5-1.1 7-.1 2.7 1.5 5 1.1 13.8-2.3 14.5-5.6 42.6-22.1 49.9-29.4 1.9-1.9 8.1-9.6 13.9-17.3 15.6-20.5 17.6-22.2 37.1-31.7 46.9-23 63.4-31.4 66-33.9 3.8-3.5 5.4-9.4 5.7-21 .2-9.4-1.6-19.5-4.5-24.8-1.7-3.2-7.6-2.8-19 1.3zM135 386.5c0 .5-.5.3-1-.5s-1-2-1-2.5c0-.6.5-.3 1 .5s1 1.9 1 2.5zm1.3 4.2c-2.1 3.1-2.3 2.9-1.2-.9.5-1.8.9-3.5.9-3.8 0-.3.4.1.9.9.6.9.4 2.3-.6 3.8zM267.9 171c-.4.9-.6 3.9-.5 6.7 0 2.8-.1 5-.3 4.7-.2-.2-1.1.5-1.9 1.7-2.4 3.4-.5 3.4 2.8-.1 2.9-3.1 3-3.2 3.1-.9.1 1.3.1 4.5 0 7.1-.3 5.5 1.1 6.2 3.4 1.8 1-1.9 2-2.7 3-2.4.8.4 1.5.2 1.5-.3 0-1.6-3.6-4.4-4.5-3.6-.4.5-.5.3-.2-.3s-.3-2.5-1.4-4.3c-1.1-1.8-1.8-3.5-1.6-3.8.3-.2 1.4 1.2 2.5 3.2 1.2 1.9 2.6 3.5 3.2 3.5.6 0 .9.3.6.8-.6 1.1 6 8.3 6.9 7.4.5-.4.5-.2.2.5-.4.6.7 2.3 2.4 3.7 1.7 1.4 2.6 2.6 2 2.6-.6 0-1.1.8-1.1 1.7 0 1.6-.2 1.6-1.1.3-.8-1.1-.9-.8-.4 1.3.4 1.9.2 2.6-.5 2.2-.5-.3-1 .1-1 .9 0 2.2 1.7 2 3-.4 1.3-2.5 2.4-1.9 5.6 3.1 3.8 6.1 6.2 4.3 2.9-2.2-2.1-3.9-1.3-5 2.8-3.8l3.2.9-2.5-2c-1.4-1.1-3.3-1.8-4.3-1.6-.9.2-1.5 0-1.2-.5.3-.4-.6-1.1-2-1.5-1.4-.3-2.5-1-2.5-1.4 0-1.2 2.9-2 3.5-1 .4.6 1.6 1 2.8 1 3.6 0 .6-1.9-5.9-3.7-9.3-2.6-11.1-5.3-3.4-5.3 4.3 0 6-1.4 3.3-2.8-2.2-1.2-8.2-1-10.2.2-.9.6-1.2.5-.7-.2.3-.6-.3-1.2-1.5-1.4-1.2-.2-2.6-1.3-3-2.6-.8-2.1-.6-2.2 4.3-2.2 3.3 0 4.8-.4 4.3-.9-1.2-1.2-10.3-1.6-12.7-.6-1.4.5-1.7 0-2-3.2-.2-2.2-.6-3.2-.9-2.3zm24.2 30.7c1.3 1.6 1.2 1.7-.3.4-1.7-1.3-2.2-2.1-1.4-2.1.2 0 1 .8 1.7 1.7z"/><path d="M279 195.6v5.8l2.9-2.8c2.7-2.6 3-2.7 3.9-.9.6 1 1.3 1.5 1.6 1.2.3-.3-1.5-2.5-3.9-4.8l-4.5-4.3v5.8zM175.4 194.1c-1.1.6-3.1 2.8-4.4 5-1.4 2.1-3.2 3.9-4 4-3.6.3-6.6-.4-8.2-1.8-2.4-2.2-4.5-1-5.7 3.2-1.6 5.8.1 8.3 7.2 10.2 4.9 1.4 6.3 2.3 8.3 5.4 4.7 7.6 11.3 10.4 19.1 8.3 9.3-2.5 8.4-25.8-1.2-32.7-3.1-2.3-8.3-3-11.1-1.6zM89.5 209.1c-.4.6-.5 1.2-.2 1.5.2.3.7-.2 1-1.1.7-1.7.1-2-.8-.4zM117.4 215.3c-1.7.6-4.8 2.5-6.8 4.2-10.7 8.8-10.1 8-10 12.6.1 3.1.7 4.7 2.1 5.6 2.4 1.6 2.2 6.8-.7 16-1.6 5.1-1.6 6.1-.4 8.5.8 1.5 2.3 3.2 3.4 3.8 2.1 1.1 6 .5 6-1 0-1.2 9.8-7.4 15-9.4 2.5-1 6.7-1.8 9.4-1.7 7.7 0 13.6-4.1 13.6-9.6 0-1.2-2.2-5.7-5-10-2.7-4.3-5-8.3-5-8.9 0-.7-2-3.3-4.4-5.9-3.9-4.3-4.8-4.8-9.2-5.1-2.7-.2-6.3.2-8 .9zm-8.8 27.3c-.4.9-.9 1.5-1.1 1.2-.3-.3-.3-1.3.1-2.2.4-.9.9-1.5 1.1-1.2.3.3.3 1.3-.1 2.2zm4.7 5.1c-2.2 1.7-2.7 1-1.3-1.7 1-1.8 1.4-2 2.1-.9.6.9.3 1.8-.8 2.6zM80.9 264.2c-.1.7-.1 3.4 0 6 .2 4.2 0 4.7-1.6 4.1-1-.3-2.4-1-3-1.6-2.1-1.6-1.5.8.6 2.7 1.2 1.1 2.5 1.5 3.3 1 .7-.4 1-.3.5.1-.4.5.3 1.9 1.5 3.2 1.2 1.3 1.8 2.4 1.5 2.4-2.4.5-3.3.3-4.5-.8-1.8-1.7-3.3-1.7-2.6 0 .5 1.3 7.4 5.7 8.8 5.7.4 0 .4-.6 0-1.3-.4-.6-.3-.8.1-.4.5.4 1 1.5 1.1 2.5.2.9.8 1.8 1.3 2 .6.2 1.1.9 1.1 1.6 0 .9-1.5 1.1-5.1.8-7-.6-6.2 1.6 1.7 4.4 3.8 1.4 6.4 3 7.2 4.5 1.5 2.6 1.5 2.5-.3-5.6-.3-1.1.1-.7.9.9.7 1.6 1.5 2.4 1.7 1.8.2-.6.4 1.6.5 5.1.1 4.1-.1 5.1-.5 3-.5-2.5-.9-3-2-2.4-.8.5-2.6.5-4.2-.1-1.5-.5-3.6-.8-4.6-.5-1.4.3-1.2.6 1.2 1.6 1.7.7 4 1.4 5.3 1.5 1.2.2 2.9 1.1 3.6 2.1 1.3 1.8 1.4 1.7 3-1.2.9-1.8 2-3.4 2.4-3.7.5-.3-.2 1.6-1.5 4.1-1.2 2.6-2.3 5.4-2.2 6.2 0 .9 1.3-1.1 2.9-4.4 1.5-3.3 2.5-6.6 2.2-7.5-.3-.8-.2-1.2.3-.8.9.9 3.5-.9 3.5-2.3 0-1.6-1.8-1-4.8 1.6l-2.9 2.4.7-3.7c.3-2 1.2-4.7 1.8-5.9.7-1.2 1.2-2.9 1.2-3.7 0-2-2.6-2.1-3.3-.2-.3.8-1.6 2-2.8 2.6-2.4 1.3-2.4 1-.3-8.9.7-3.3.7-3.3-1.7-2-1.3.8-3.1 1.4-3.9 1.4-1.6.1-3.9-2.3-3.9-4 0-.6.7-.1 1.6 1 1.3 1.6 1.5 1.7 1 .2-.4-.9-.2-1.7.3-1.7.6 0 1-.5 1-1.1 0-.5-.6-.7-1.2-.3-.8.4-1 .3-.5-.2s1.3-.9 1.9-.9c.6 0 1.4-1 1.9-2.3 1-2.5-.2-2.9-2.1-.7-2.5 3-3 2.3-5-5.3-1-4-2.8-5.7-3.1-3zm9 22c.5 1.3 1.1 3.4 1.5 4.8.6 2.2.5 2.1-1-.5-1.6-2.7-2.6-6.5-1.7-6.5.2 0 .7 1 1.2 2.2zm.7 10.4c1.8 1.4 1.8 1.4-.6.3-3.1-1.4-3.6-1.9-2.4-1.9.6 0 1.9.7 3 1.6zM133.1 265.8c-6.6 3.1-9.1 11.8-4.8 16.7 1.8 2.1 3.3 2.7 7.6 3.1 3 .2 5.8.9 6.2 1.6.4.6 2.3 1.2 4.3 1.3 2.8.2 4.3-.5 6.6-2.7 1.7-1.5 3-2.9 3-3.1 1.4-8.5.3-11.9-5-15.7-3.8-2.7-13.5-3.4-17.9-1.2zM173.4 287.2l-2.9 3.3 3.3-2.9c3-2.8 3.7-3.6 2.9-3.6-.2 0-1.6 1.5-3.3 3.2zM166.5 298c-.3.6.1.7.9.4 1.8-.7 2.1-1.4.7-1.4-.6 0-1.3.4-1.6 1zM152 300c-.9.6-1 1-.3 1 .6 0 1.5-.5 1.8-1 .8-1.2.4-1.2-1.5 0zM50.5 314.1c-7.7 3.8-11.5 10.3-11.5 19.6.1 7.5 2.3 12.3 9.3 19.5 4.3 4.5 6.6 6 11.1 7.3 6.6 1.9 12.5 1.3 18.1-1.8 6.6-3.8 8.3-7.7 7.6-17.3 0-1.1-1-3-2.1-4.2-1.2-1.2-1.8-2.2-1.4-2.2.4 0-1-1.5-3-3.3-3-2.5-4-4.3-4.7-8.2-.5-2.9-1.8-5.8-3.1-7-2.1-1.9-2.1-1.9-.7 0 1.4 1.9 1.4 1.9-1.2 0-1.5-1.1-2.5-2.3-2.3-2.6.2-.3-.9-.7-2.4-.8-1.5 0-4.3-.3-6.3-.5-2.2-.1-5.3.5-7.4 1.5zM8.4 401.2l-1.9 2.3 2.3-1.9c2.1-1.8 2.7-2.6 1.9-2.6-.2 0-1.2 1-2.3 2.2zM15.4 403.2l-1.9 2.3 2.3-1.9c2.1-1.8 2.7-2.6 1.9-2.6-.2 0-1.2 1-2.3 2.2zM11.5 408.6c-.9 1.5-1.2 2.3-.6 2 1.1-.7 3.5-4.6 2.8-4.6-.3 0-1.2 1.2-2.2 2.6zM3.6 408.7c-.6 1.4-.5 1.5.5.6.7-.7 1-1.5.7-1.8-.3-.3-.9.2-1.2 1.2zM1.1 415.6c0 1.1.3 1.4.6.6.3-.7.2-1.6-.1-1.9-.3-.4-.6.2-.5 1.3zM6.2 423c0 1.4.2 1.9.5 1.2.2-.6.2-1.8 0-2.5-.3-.6-.5-.1-.5 1.3zM5.3 429.5c0 2.2.2 3 .4 1.7.2-1.2.2-3 0-4-.3-.9-.5.1-.4 2.3z"/></svg>